# File created by Blade
# Date/Time:  Tue Sep 30 19:11:31 2014
#---------------------------------------------------------
:version 1.10
:name HOM
:units
  mass 1.0
  length 1.000000
  angle deg
:documentation
     Acclaim Skeleton File
:root
   axis xyz
   order TX TY TZ RX RY RZ
   position 0.000000 0.000000 0.000000
   orientation 0 0 0
:bonedata
   begin
      id 1
      name Spine_dum
      direction 0.000000 1.000000 0.000000
      length 7.508948
      axis 0.0 0.0 0.0 xyz
   end
   begin
      id 2
      name LeftUpLeg_dum
      direction 1.000000 0.000000 0.000000
      length 3.000560
      axis 0.0 0.0 0.0 xyz
   end
   begin
      id 3
      name RightUpLeg_dum
      direction -1.000000 0.000000 0.000000
      length 3.000560
      axis 0.0 0.0 0.0 xyz
   end
   begin
      id 4
      name Spine
      direction 0.000000 1.000000 0.000000
      length 0.000000
      axis 0.0 0.0 0.0 xyz
      dof rx ry rz
   end
   begin
      id 5
      name Spine_dum1
      direction 0.000000 1.000000 0.000000
      length 13.861154
      axis 0.0 0.0 0.0 xyz
   end
   begin
      id 6
      name Spine_dum2
      direction 0.000000 1.000000 0.000000
      length 8.204781
      axis 0.0 0.0 0.0 xyz
   end
   begin
      id 7
      name Spine_dum3
      direction 0.000000 1.000000 0.000000
      length 8.204781
      axis 0.0 0.0 0.0 xyz
   end
   begin
      id 8
      name Head
      direction 0.000000 1.000000 0.000000
      length 4.527550
      axis 0.0 0.0 0.0 xyz
      dof rx ry rz
   end
   begin
      id 9
      name LeftShoulder
      direction 1.000000 0.000000 0.000000
      length 6.635956
      axis 0.0 0.0 -90.0 xyz
      dof rx ry rz
   end
   begin
      id 10
      name LeftArm
      direction 1.000000 0.000000 0.000000
      length 10.274218
      axis 0.0 0.0 -90.0 xyz
      dof rx ry rz
   end
   begin
      id 11
      name LeftForeArm
      direction 1.000000 0.000000 0.000000
      length 8.522147
      axis 0.0 0.0 -90.0 xyz
      dof ry rz rx
   end
   begin
      id 12
      name LeftHand
      direction 0.000000 0.000000 0.000000
      length 0.000000
      axis 0.0 0.0 -90.0 xyz
      dof rx ry rz
   end
   begin
      id 13
      name LeftHand_dum1
      direction 0.000000 0.000000 0.000000
      length 0.000000
      axis 0.0 0.0 -90.0 xyz
   end
   begin
      id 14
      name LeftHand_dum2
      direction 1.000000 0.000000 0.000000
      length 3.937000
      axis 0.0 0.0 -90.0 xyz
   end
   begin
      id 15
      name LeftHandThumb1
      direction 0.000000 0.000000 1.000000
      length 3.937000
      axis 0.0 0.0 -90.0 xyz
      dof rx rz ry
   end
   begin
      id 16
      name RightShoulder
      direction -1.000000 0.000000 0.000000
      length 6.635956
      axis 0.0 0.0 90.0 xyz
      dof rx ry rz
   end
   begin
      id 17
      name RightArm
      direction -1.000000 0.000000 0.000000
      length 10.274218
      axis 0.0 0.0 90.0 xyz
      dof rx ry rz
   end
   begin
      id 18
      name RightForeArm
      direction -1.000000 0.000000 0.000000
      length 8.522147
      axis 0.0 0.0 90.0 xyz
      dof ry rz rx
   end
   begin
      id 19
      name RightHand
      direction 0.000000 0.000000 0.000000
      length 0.000000
      axis 0.0 0.0 90.0 xyz
      dof rx ry rz
   end
   begin
      id 20
      name RightHand_dum1
      direction 0.000000 0.000000 0.000000
      length 0.000000
      axis 0.0 0.0 90.0 xyz
   end
   begin
      id 21
      name RightHand_dum2
      direction -1.000000 0.000000 0.000000
      length 3.937000
      axis 0.0 0.0 90.0 xyz
   end
   begin
      id 22
      name RightHandThumb1
      direction 0.000000 0.000000 1.000000
      length 3.937000
      axis 0.0 0.0 90.0 xyz
      dof rx rz ry
   end
   begin
      id 23
      name LeftUpLeg
      direction 0.000000 -1.000000 0.000000
      length 16.490845
      axis 0.0 0.0 0.0 xyz
      dof rx ry rz
   end
   begin
      id 24
      name LeftLeg
      direction 0.000000 -1.000000 0.000000
      length 14.556576
      axis 0.0 0.0 0.0 xyz
      dof rx ry rz
   end
   begin
      id 25
      name LeftFoot
      direction 0.000000 -0.258819 0.965926
      length 4.831116
      axis 15.0 0.0 0.0 xyz
      dof rx ry rz
   end
   begin
      id 26
      name LeftToeBase
      direction 0.000000 0.000000 1.000000
      length 2.952750
      axis 0.0 0.0 0.0 xyz
      dof rx ry rz
   end
   begin
      id 27
      name RightUpLeg
      direction 0.000000 -1.000000 0.000000
      length 16.490845
      axis 0.0 0.0 0.0 xyz
      dof rx ry rz
   end
   begin
      id 28
      name RightLeg
      direction 0.000000 -1.000000 0.000000
      length 14.556576
      axis 0.0 0.0 0.0 xyz
      dof rx ry rz
   end
   begin
      id 29
      name RightFoot
      direction 0.000000 -0.258819 0.965926
      length 4.831116
      axis 15.0 0.0 0.0 xyz
      dof rx ry rz
   end
   begin
      id 30
      name RightToeBase
      direction 0.000000 0.000000 1.000000
      length 2.952750
      axis 0.0 0.0 0.0 xyz
      dof rx ry rz
   end
:hierarchy
   begin
      root Spine_dum LeftUpLeg_dum RightUpLeg_dum
      Spine_dum Spine
      LeftUpLeg_dum LeftUpLeg
      RightUpLeg_dum RightUpLeg
      Spine Spine_dum1 Spine_dum2 Spine_dum3
      Spine_dum1 Head
      Spine_dum2 LeftShoulder
      Spine_dum3 RightShoulder
      LeftShoulder LeftArm
      LeftArm LeftForeArm
      LeftForeArm LeftHand
      LeftHand LeftHand_dum1 LeftHand_dum2
      LeftHand_dum1 LeftHandThumb1
      RightShoulder RightArm
      RightArm RightForeArm
      RightForeArm RightHand
      RightHand RightHand_dum1 RightHand_dum2
      RightHand_dum1 RightHandThumb1
      LeftUpLeg LeftLeg
      LeftLeg LeftFoot
      LeftFoot LeftToeBase
      RightUpLeg RightLeg
      RightLeg RightFoot
      RightFoot RightToeBase
   end

# File created by Blade
# Date/Time:  Thu Sep 25 15:31:15 2014
# Frame Rate: 120.000 fps
#------------------------------------------------------
:FULLY-SPECIFIED
:DEGREES
1
root 1.526001 32.879678 -4.145866 11.628789 1.675218 -1.997422
Spine -11.267238 6.301345 1.836744
Head -8.572287 -7.044448 7.858949
LeftShoulder -13.609516 24.150825 27.463357
LeftArm 22.128535 -25.710235 -33.413444
LeftForeArm 9.820673 -0.000000 14.340947
LeftHand -30.069689 -0.000000 -0.860615
LeftHandThumb1 -26.253704 0.000000 33.147579
RightShoulder -17.410010 12.191446 -39.282533
RightArm -9.926397 9.549289 32.541536
RightForeArm -32.164939 -0.000000 17.725462
RightHand -11.993887 -0.000000 7.680923
RightHandThumb1 -24.326973 -0.000000 -32.862282
LeftUpLeg -8.670194 17.097164 0.977437
LeftLeg 3.299098 -0.000000 -0.000000
LeftFoot -10.087772 -3.289823 -17.824637
LeftToeBase 1.921096 -0.000000 -0.000000
RightUpLeg -7.918801 -3.674810 2.693022
RightLeg 1.672471 -0.000000 -0.000000
RightFoot -8.683079 -4.830775 -5.151699
RightToeBase 0.826471 -0.000000 -0.000000
2
root 1.526394 32.879703 -4.145653 11.618812 1.671800 -1.996243
Spine -11.241378 6.303906 1.833952
Head -8.558758 -7.075226 7.875703
LeftShoulder -13.613908 24.168463 27.454676
LeftArm 22.161683 -25.760779 -33.436314
LeftForeArm 9.802117 -0.000000 14.336312
LeftHand -30.053302 -0.000000 -0.898751
LeftHandThumb1 -26.253704 0.000000 33.147579
RightShoulder -17.428741 12.205855 -39.292040
RightArm -9.933375 9.556132 32.538325
RightForeArm -32.173390 -0.000000 17.731500
RightHand -11.976057 -0.000000 7.656815
RightHandThumb1 -24.326973 -0.000000 -32.862282
LeftUpLeg -8.627067 16.981194 0.994137
LeftLeg 3.242020 -0.000000 -0.000000
LeftFoot -10.100704 -3.171013 -17.835887
LeftToeBase 1.989807 -0.000000 -0.000000
RightUpLeg -7.981358 -3.855636 2.714114
RightLeg 1.818943 -0.000000 -0.000000
RightFoot -8.767998 -4.673630 -5.224877
RightToeBase 0.828846 -0.000000 -0.000000
3
root 1.526618 32.879632 -4.144443 11.613662 1.667505 -1.985598
Spine -11.231295 6.290798 1.816609
Head -8.524998 -7.103978 7.896138
LeftShoulder -13.610772 24.140984 27.464219
LeftArm 22.133242 -25.752893 -33.429901
LeftForeArm 9.790670 -0.000000 14.354776
LeftHand -30.053986 0.000000 -0.882439
LeftHandThumb1 -26.253704 0.000000 33.147579
RightShoulder -17.431823 12.212717 -39.292996
RightArm -9.926531 9.560213 32.548132
RightForeArm -32.179269 0.000000 17.741592
RightHand -12.106801 0.000000 7.643878
RightHandThumb1 -24.326973 -0.000000 -32.862282
LeftUpLeg -8.600553 16.923135 0.992922
LeftLeg 3.211152 -0.000000 -0.000000
LeftFoot -10.103645 -3.121068 -17.883735
LeftToeBase 1.962458 -0.000000 -0.000000
RightUpLeg -8.038550 -4.037977 2.726456
RightLeg 1.948316 -0.000000 -0.000000
RightFoot -8.850438 -4.511322 -5.262056
RightToeBase 0.763669 -0.000000 -0.000000
4
root 1.525914 32.879618 -4.143606 11.613971 1.658097 -1.982121
Spine -11.229505 6.294110 1.801406
Head -8.481385 -7.122271 7.920130
LeftShoulder -13.604615 24.140277 27.472606
LeftArm 22.138422 -25.768059 -33.433568
LeftForeArm 9.794870 -0.000000 14.359390
LeftHand -30.050797 -0.000000 -0.886256
LeftHandThumb1 -26.253704 0.000000 33.147579
RightShoulder -17.436711 12.233195 -39.291785
RightArm -9.945614 9.570828 32.534237
RightForeArm -32.200063 -0.000000 17.758068
RightHand -12.025237 -0.000000 7.657867
RightHandThumb1 -24.326973 -0.000000 -32.862282
LeftUpLeg -8.568551 16.833550 1.003600
LeftLeg 3.155925 -0.000000 -0.000000
LeftFoot -10.115715 -3.018142 -17.871178
LeftToeBase 2.031494 -0.000000 -0.000000
RightUpLeg -8.094448 -4.181414 2.743469
RightLeg 2.063469 -0.000000 -0.000000
RightFoot -8.919509 -4.379608 -5.322059
RightToeBase 0.801058 -0.000000 -0.000000
5
root 1.519028 32.878687 -4.138802 11.578538 1.649609 -2.023446
Spine -11.189773 6.296895 1.828115
Head -8.435759 -7.155451 7.971193
LeftShoulder -13.611406 24.130058 27.478315
LeftArm 22.136093 -25.770197 -33.421451
LeftForeArm 9.803245 -0.000000 14.377632
LeftHand -30.065946 0.000000 -0.921619
LeftHandThumb1 -26.253704 0.000000 33.147579
RightShoulder -17.440497 12.244618 -39.281386
RightArm -9.947518 9.573384 32.532746
RightForeArm -32.197075 -0.000000 17.772331
RightHand -12.053741 -0.000000 7.642513
RightHandThumb1 -24.326973 -0.000000 -32.862282
LeftUpLeg -8.701237 17.454322 0.979543
LeftLeg 3.470427 -0.000000 -0.000000
LeftFoot -10.097897 -3.570622 -17.657361
LeftToeBase 1.927242 -0.000000 -0.000000
RightUpLeg -8.108791 -4.353289 2.819208
RightLeg 2.176657 -0.000000 -0.000000
RightFoot -8.962743 -4.231149 -5.384138
RightToeBase 0.724013 -0.000000 -0.000000
6
root 1.519004 32.878609 -4.137989 11.574548 1.637923 -2.017253
Spine -11.181549 6.298294 1.814102
Head -8.383956 -7.186907 7.981410
LeftShoulder -13.604990 24.099811 27.485304
LeftArm 22.121331 -25.770574 -33.415593
LeftForeArm 9.827391 -0.000000 14.377021
LeftHand -30.018306 -0.000000 -0.927947
LeftHandThumb1 -26.253704 0.000000 33.147579
RightShoulder -17.443075 12.252112 -39.285774
RightArm -9.953258 9.578106 32.538863
RightForeArm -32.234557 -0.000000 17.793463
RightHand -12.069704 -0.000000 7.624165
RightHandThumb1 -24.326973 -0.000000 -32.862282
LeftUpLeg -8.671883 17.394970 0.983198
LeftLeg 3.430247 -0.000000 -0.000000
LeftFoot -10.106067 -3.505250 -17.708334
LeftToeBase 1.937109 -0.000000 -0.000000
RightUpLeg -8.171732 -4.504508 2.829665
RightLeg 2.329220 -0.000000 -0.000000
RightFoot -9.047666 -4.151225 -5.496158
RightToeBase 0.688132 -0.000000 -0.000000
